<mxfile host="app.diagrams.net" modified="2022-08-22T13:11:01.326Z" agent="5.0 (Windows NT 10.0; Win64; x64) AppleWebKit/537.36 (KHTML, like Gecko) Chrome/104.0.0.0 Safari/537.36" etag="nLGcO2K0blMZ0bgAZ-9j" version="20.2.5" type="github">
  <diagram id="X_sw8iCUT5u-Waq2W_nI" name="Page-1">
    <mxGraphModel dx="782" dy="475" grid="1" gridSize="10" guides="1" tooltips="1" connect="1" arrows="1" fold="1" page="1" pageScale="1" pageWidth="850" pageHeight="1100" math="0" shadow="0">
      <root>
        <mxCell id="0" />
        <mxCell id="1" parent="0" />
        <mxCell id="TQWQdhLd2tB7jWtTpMAH-1" value="Start" style="ellipse;whiteSpace=wrap;html=1;" vertex="1" parent="1">
          <mxGeometry x="320" y="40" width="120" height="80" as="geometry" />
        </mxCell>
        <mxCell id="TQWQdhLd2tB7jWtTpMAH-2" value="Input n" style="shape=parallelogram;perimeter=parallelogramPerimeter;whiteSpace=wrap;html=1;fixedSize=1;" vertex="1" parent="1">
          <mxGeometry x="321" y="160" width="120" height="60" as="geometry" />
        </mxCell>
        <mxCell id="TQWQdhLd2tB7jWtTpMAH-3" value="i = 1; i &amp;lt;= n; i++" style="rounded=0;whiteSpace=wrap;html=1;" vertex="1" parent="1">
          <mxGeometry x="321" y="280" width="120" height="60" as="geometry" />
        </mxCell>
        <mxCell id="TQWQdhLd2tB7jWtTpMAH-4" value="sum += (i * i)" style="rounded=0;whiteSpace=wrap;html=1;" vertex="1" parent="1">
          <mxGeometry x="321" y="400" width="120" height="60" as="geometry" />
        </mxCell>
        <mxCell id="TQWQdhLd2tB7jWtTpMAH-5" value="return sum" style="shape=parallelogram;perimeter=parallelogramPerimeter;whiteSpace=wrap;html=1;fixedSize=1;" vertex="1" parent="1">
          <mxGeometry x="320" y="520" width="120" height="60" as="geometry" />
        </mxCell>
        <mxCell id="TQWQdhLd2tB7jWtTpMAH-6" value="end" style="ellipse;whiteSpace=wrap;html=1;" vertex="1" parent="1">
          <mxGeometry x="321" y="640" width="120" height="80" as="geometry" />
        </mxCell>
        <mxCell id="TQWQdhLd2tB7jWtTpMAH-7" value="" style="endArrow=classic;html=1;rounded=0;entryX=0.5;entryY=0;entryDx=0;entryDy=0;" edge="1" parent="1" target="TQWQdhLd2tB7jWtTpMAH-3">
          <mxGeometry width="50" height="50" relative="1" as="geometry">
            <mxPoint x="380" y="220" as="sourcePoint" />
            <mxPoint x="380" y="260" as="targetPoint" />
          </mxGeometry>
        </mxCell>
        <mxCell id="TQWQdhLd2tB7jWtTpMAH-10" value="" style="endArrow=classic;html=1;rounded=0;entryX=0.5;entryY=0;entryDx=0;entryDy=0;" edge="1" parent="1">
          <mxGeometry width="50" height="50" relative="1" as="geometry">
            <mxPoint x="382" y="341" as="sourcePoint" />
            <mxPoint x="383" y="401" as="targetPoint" />
          </mxGeometry>
        </mxCell>
        <mxCell id="TQWQdhLd2tB7jWtTpMAH-11" value="" style="endArrow=classic;html=1;rounded=0;entryX=0.5;entryY=0;entryDx=0;entryDy=0;" edge="1" parent="1">
          <mxGeometry width="50" height="50" relative="1" as="geometry">
            <mxPoint x="383" y="459" as="sourcePoint" />
            <mxPoint x="384" y="519" as="targetPoint" />
          </mxGeometry>
        </mxCell>
        <mxCell id="TQWQdhLd2tB7jWtTpMAH-12" value="" style="endArrow=classic;html=1;rounded=0;entryX=0.5;entryY=0;entryDx=0;entryDy=0;" edge="1" parent="1">
          <mxGeometry width="50" height="50" relative="1" as="geometry">
            <mxPoint x="380" y="580" as="sourcePoint" />
            <mxPoint x="381" y="640" as="targetPoint" />
          </mxGeometry>
        </mxCell>
        <mxCell id="TQWQdhLd2tB7jWtTpMAH-13" value="" style="endArrow=classic;html=1;rounded=0;entryX=0.5;entryY=0;entryDx=0;entryDy=0;" edge="1" parent="1">
          <mxGeometry width="50" height="50" relative="1" as="geometry">
            <mxPoint x="380" y="120" as="sourcePoint" />
            <mxPoint x="379" y="161" as="targetPoint" />
          </mxGeometry>
        </mxCell>
      </root>
    </mxGraphModel>
  </diagram>
</mxfile>
